<svg version="1.1" id="layer" xmlns="http://www.w3.org/2000/svg" xmlns:xlink="http://www.w3.org/1999/xlink" x="0px" y="0px" viewBox="0 0 48 48" style="enable-background:new 0 0 48 48;" xml:space="preserve">
<path fill="#fff" d="M27.3,36.8c-3.4,0-6.7-1.1-9.5-3.1l3-4.4c1.6,1.4,4.1,2.3,6.5,2.3c1.8,0,3.2-0.9,3.2-2.1c0-1.5-2-2.2-4.2-3
	c-3.3-1.1-7.3-2.5-7.3-7c0-2.1,1-4.1,2.8-5.4c1.8-1.3,4-2,6.3-2c3.2,0,6.4,1.2,7.9,2.3l-2.9,4.5c-0.9-0.6-2.6-1.6-4.6-1.6
	s-3.4,0.8-3.4,2s1.7,1.8,3.8,2.5c3.5,1.1,7.8,2.6,7.8,7.7c0,2.1-1,4-2.8,5.3C32.2,36.1,29.8,36.8,27.3,36.8z M0.5,12.6h6.2v23.7H0.5
	V12.6z M12.7,20.5c-2.3,0-4.2-1.9-4.2-4.2s1.9-4.2,4.2-4.2s4.2,1.9,4.2,4.2S15,20.5,12.7,20.5L12.7,20.5z"></path>
  <path fill="#fff" d="M43.4,36.8c-2.3,0-4.2-1.9-4.2-4.2s1.9-4.2,4.2-4.2s4.2,1.9,4.2,4.2S45.7,36.8,43.4,36.8L43.4,36.8z"></path>
</svg>
