<?xml version="1.0" encoding="utf-8"?>
<!-- Generator: Adobe Illustrator 28.1.0, SVG Export Plug-In . SVG Version: 6.00 Build 0)  -->
<svg xmlns="http://www.w3.org/2000/svg" xmlns:xlink="http://www.w3.org/1999/xlink" x="0px"
     y="0px"
     viewBox="0 0 800 800" style="enable-background:new 0 0 800 800;" xml:space="preserve">
<style type="text/css">
	.st0{fill:#333;}
</style>
  <g>
	<path class="st0" d="M335.1,563.6L224.5,698.3c-15.6,19-8.1,47.6,14.7,56.6l108.1,42.6c23.3,9.2,48.7-7.6,49.4-32.7l4.7-176.4
		C402.3,552.8,357.7,536.1,335.1,563.6z"/>
    <path class="st0" d="M316.7,429.7l-164-58.9c-23.1-8.3-47.5,8.3-48.3,32.8l-3.7,116.2c-0.8,25.1,23.5,43.3,47.4,35.5l167.7-54.9
		C349.5,489.4,350.2,441.8,316.7,429.7z"/>
    <path class="st0" d="M504.7,448.6l168-46.3c23.6-6.5,34.1-34.2,20.6-54.7l-63.8-97.1c-13.8-20.9-44.2-21.9-59.2-1.8L464.8,390.3
		C443.5,418.8,470.4,458.1,504.7,448.6z"/>
    <path class="st0" d="M383,44.9c1.3-29.1-26-51-54.1-43.3l-133,36.3c-28.7,7.8-40.9,41.8-23.7,66.1l152.6,264.4
		c1.2,2.1,2.6,4.2,4.2,6.1c22.6,26.6,65,16.7,75.5-14.4c1.9-5.6,2.4-11.5,1.9-17.4L383,44.9z"/>
    <path class="st0" d="M673.9,569.5l-168.7-51.8c-34-10.4-62,28.1-41.6,57.2l100.1,142.7c14.1,20.1,43.7,20.6,58.4,1l70-92.8
		C707.2,605.8,697.8,576.9,673.9,569.5z"/>
</g>
</svg>
